Coordinates
version=1
nRows=50
nColumns=24
inDegrees=yes

Units are S.I. units (second, meters, Newtons, ...)
If the header above contains a line with 'inDegrees', this indicates whether rotational values are in degrees (yes) or radians (no).

endheader
time	pelvis_tilt	pelvis_list	pelvis_rotation	pelvis_tx	pelvis_ty	pelvis_tz	hip_flexion_r	hip_adduction_r	hip_rotation_r	knee_angle_r	ankle_angle_r	subtalar_angle_r	mtp_angle_r	hip_flexion_l	hip_adduction_l	hip_rotation_l	knee_angle_l	ankle_angle_l	subtalar_angle_l	mtp_angle_l	lumbar_extension	lumbar_bending	lumbar_rotation
1.200000	8.676876	1.168651	-180.140194	0.293977	0.598899	-1.210000	65.045143	-26.776198	-10.842451	-96.815650	36.552512	9.569284	0.000000	66.458012	-30.214278	-7.846818	-96.577559	37.196596	17.701490	0.000000	-9.974668	2.073184	0.648628
1.205000	8.661097	1.149903	-180.140722	0.293967	0.598434	-1.210024	65.093361	-26.764695	-10.758352	-96.902148	36.578157	9.574777	0.000000	66.486924	-30.216324	-7.832904	-96.663845	37.277150	17.741677	0.000000	-10.009194	2.049263	0.676173
1.210000	8.639569	1.134732	-180.163818	0.294012	0.598022	-1.210075	65.151173	-26.730756	-10.675377	-96.990884	36.601868	9.560253	0.000000	66.509363	-30.245351	-7.827279	-96.743571	37.294453	17.747798	0.000000	-10.037589	2.125151	0.530914
1.215000	8.608675	1.138961	-180.150067	0.294092	0.597506	-1.210037	65.200749	-26.738334	-10.632825	-97.106483	36.648373	9.515532	0.000000	66.551240	-30.242160	-7.794334	-96.844307	37.358688	17.735182	0.000000	-10.070038	2.096856	0.635787
1.220000	8.574039	1.137391	-180.185222	0.294063	0.597059	-1.209955	65.248281	-26.715352	-10.571092	-97.211455	36.690194	9.451444	0.000000	66.585037	-30.279000	-7.758647	-96.976259	37.384918	17.721188	0.000000	-10.116338	2.064771	0.801353
1.225000	8.554051	1.123835	-180.203922	0.294050	0.596704	-1.209948	65.297220	-26.693237	-10.500364	-97.294312	36.696285	9.377396	0.000000	66.600333	-30.297517	-7.753643	-97.060851	37.423317	17.716049	0.000000	-10.129262	2.155320	0.618871
1.230000	8.551228	1.117973	-180.211919	0.294119	0.596365	-1.209995	65.346949	-26.662191	-10.440662	-97.353525	36.697710	9.355932	0.000000	66.624497	-30.295388	-7.756977	-97.068820	37.441847	17.684653	0.000000	-10.144967	2.194590	0.547695
1.235000	8.521758	1.099422	-180.190700	0.294170	0.595993	-1.209981	65.371918	-26.678333	-10.377747	-97.426485	36.732312	9.331594	0.000000	66.641921	-30.266005	-7.726096	-97.161467	37.501365	17.668719	0.000000	-10.197409	2.101837	0.706363
1.240000	8.498604	1.087332	-180.187270	0.294213	0.595692	-1.210006	65.406678	-26.669698	-10.315745	-97.496449	36.752114	9.315313	0.000000	66.660633	-30.263847	-7.712167	-97.216363	37.520994	17.669723	0.000000	-10.216443	2.147326	0.604082
1.245000	8.486265	1.078441	-180.181396	0.294199	0.595425	-1.209922	65.445891	-26.685033	-10.278968	-97.565149	36.794401	9.281200	0.000000	66.683834	-30.241573	-7.687946	-97.275187	37.567553	17.664938	0.000000	-10.226520	2.157650	0.620969
1.250000	8.476217	1.068331	-180.194826	0.294226	0.595151	-1.209862	65.491806	-26.678266	-10.233731	-97.627266	36.820018	9.210302	0.000000	66.704615	-30.244068	-7.691431	-97.322167	37.560153	17.591059	0.000000	-10.227640	2.174786	0.617337
1.255000	8.465022	1.054012	-180.190582	0.294216	0.594921	-1.209853	65.516025	-26.677187	-10.183266	-97.672785	36.825020	9.198328	0.000000	66.727600	-30.240830	-7.666233	-97.408031	37.574074	17.610157	0.000000	-10.254746	2.198122	0.540085
1.260000	8.448732	1.055944	-180.151012	0.294311	0.594623	-1.209791	65.528234	-26.711933	-10.173509	-97.723416	36.833844	9.191827	0.000000	66.754996	-30.193413	-7.641486	-97.421814	37.589781	17.596037	0.000000	-10.293267	2.144660	0.679124
1.265000	8.432454	1.040081	-180.153298	0.294314	0.594448	-1.209839	65.545807	-26.706749	-10.134571	-97.763889	36.840099	9.189075	0.000000	66.751871	-30.204406	-7.645872	-97.475562	37.617206	17.594348	0.000000	-10.309804	2.165770	0.614128
1.270000	8.409439	1.030656	-180.138412	0.294362	0.594250	-1.209806	65.562144	-26.727410	-10.111102	-97.814840	36.849994	9.173512	0.000000	66.761212	-30.182598	-7.637390	-97.497161	37.615733	17.589006	0.000000	-10.327509	2.154729	0.656443
1.275000	8.389269	1.016954	-180.137763	0.294378	0.594125	-1.209853	65.582620	-26.727183	-10.073819	-97.864958	36.858537	9.161753	0.000000	66.758060	-30.189545	-7.643030	-97.525150	37.617425	17.576994	0.000000	-10.334589	2.191228	0.570767
1.280000	8.372786	1.010256	-180.125535	0.294421	0.593985	-1.209833	65.595418	-26.744790	-10.056521	-97.904264	36.866592	9.157045	0.000000	66.768106	-30.177378	-7.632320	-97.555443	37.628052	17.570075	0.000000	-10.345398	2.182362	0.597326
1.285000	8.381253	0.977459	-180.097864	0.294366	0.593916	-1.209824	65.614868	-26.786129	-10.025949	-97.919826	36.883807	9.145301	0.000000	66.759674	-30.143149	-7.662257	-97.553204	37.647614	17.573208	0.000000	-10.346606	2.193335	0.483280
1.290000	8.356096	0.957771	-180.071038	0.294432	0.593749	-1.209872	65.609878	-26.811846	-10.004283	-97.945222	36.905853	9.145816	0.000000	66.757804	-30.130659	-7.660081	-97.603402	37.664133	17.622696	0.000000	-10.388653	2.200820	0.398124
1.295000	8.348881	0.954036	-180.060301	0.294448	0.593643	-1.209881	65.610959	-26.816943	-9.992534	-97.958591	36.910669	9.147619	0.000000	66.764000	-30.130288	-7.659419	-97.617660	37.665636	17.625182	0.000000	-10.395180	2.211476	0.403392
1.300000	8.335184	0.950821	-180.050030	0.294459	0.593580	-1.209868	65.614615	-26.839491	-10.000961	-97.987247	36.935664	9.132774	0.000000	66.763946	-30.127101	-7.667640	-97.617135	37.649101	17.609457	0.000000	-10.401879	2.216844	0.413858
1.305000	8.321109	0.949542	-180.047601	0.294471	0.593513	-1.209837	65.624061	-26.855580	-9.998843	-98.021252	36.941230	9.124809	0.000000	66.761066	-30.126892	-7.648942	-97.658932	37.644517	17.612649	0.000000	-10.402154	2.214524	0.451111
1.310000	8.316282	0.946895	-180.044751	0.294492	0.593476	-1.209862	65.622909	-26.863808	-10.006289	-98.026062	36.943710	9.119606	0.000000	66.765343	-30.139449	-7.672353	-97.652370	37.646021	17.613335	0.000000	-10.402586	2.225158	0.467034
1.315000	8.320797	0.940711	-180.042473	0.294541	0.593479	-1.209954	65.620340	-26.853989	-10.000479	-98.011678	36.946295	9.120108	0.000000	66.763265	-30.146386	-7.684374	-97.631210	37.645800	17.620049	0.000000	-10.402180	2.232775	0.447269
1.320000	8.320729	0.936460	-180.031794	0.294574	0.593476	-1.210012	65.616144	-26.857198	-10.002068	-98.008084	36.944944	9.120715	0.000000	66.765704	-30.152060	-7.685328	-97.641302	37.648149	17.625456	0.000000	-10.401693	2.224108	0.450659
1.325000	8.313843	0.933115	-180.026228	0.294581	0.593507	-1.210007	65.609722	-26.874243	-10.015193	-98.008264	36.940997	9.127165	0.000000	66.756330	-30.157578	-7.700726	-97.638923	37.642811	17.648855	0.000000	-10.397875	2.230486	0.479066
1.330000	8.309935	0.934937	-180.025845	0.294588	0.593560	-1.210015	65.605379	-26.882545	-10.027995	-98.008045	36.942333	9.129687	0.000000	66.745996	-30.165606	-7.716690	-97.604004	37.631116	17.652513	0.000000	-10.399477	2.241928	0.490156
1.335000	8.273756	0.937644	-180.022803	0.294581	0.593658	-1.210047	65.554533	-26.886192	-10.043492	-98.000788	36.958735	9.132091	0.000000	66.703858	-30.192580	-7.729302	-97.626057	37.631942	17.722259	0.000000	-10.428367	2.228103	0.575135
1.340000	8.261826	0.934556	-179.995042	0.294654	0.593723	-1.210095	65.525482	-26.913348	-10.071001	-97.984802	36.950394	9.143766	0.000000	66.693519	-30.178886	-7.730749	-97.600420	37.621635	17.741923	0.000000	-10.406818	2.173137	0.720863
1.345000	8.271547	0.929988	-179.989098	0.294684	0.593854	-1.210163	65.512905	-26.915549	-10.089798	-97.951971	36.948624	9.146041	0.000000	66.680317	-30.185002	-7.757212	-97.558751	37.618685	17.750326	0.000000	-10.390722	2.183864	0.714756
1.350000	8.250495	0.920034	-179.983349	0.294696	0.594013	-1.210253	65.476070	-26.928006	-10.109551	-97.931110	36.937699	9.162139	0.000000	66.635851	-30.204559	-7.790681	-97.524865	37.595720	17.841110	0.000000	-10.399215	2.203935	0.665617
1.355000	8.266888	0.920313	-179.998091	0.294638	0.594221	-1.210247	65.468692	-26.929249	-10.136931	-97.899756	36.925926	9.167669	0.000000	66.613011	-30.229517	-7.833567	-97.491652	37.588683	17.843873	0.000000	-10.384879	2.254833	0.604754
1.360000	8.257553	0.917094	-179.995202	0.294580	0.594481	-1.210215	65.425159	-26.951668	-10.173002	-97.857734	36.911303	9.169238	0.000000	66.562208	-30.228245	-7.874294	-97.424096	37.531337	17.805164	0.000000	-10.349007	2.265045	0.651949
1.365000	8.251596	0.924458	-179.978823	0.294564	0.594703	-1.210224	65.374029	-26.968497	-10.221940	-97.809296	36.907285	9.187863	0.000000	66.532397	-30.226450	-7.875719	-97.400681	37.524583	17.826545	0.000000	-10.351397	2.205940	0.804202
1.370000	8.261722	0.911801	-179.950034	0.294501	0.595007	-1.210270	65.321062	-26.999188	-10.255329	-97.733960	36.895089	9.248044	0.000000	66.487733	-30.219034	-7.928118	-97.323089	37.523606	17.898823	0.000000	-10.366106	2.260070	0.613306
1.375000	8.256798	0.899851	-179.916606	0.294554	0.595284	-1.210306	65.273075	-27.032424	-10.289976	-97.672006	36.893769	9.261699	0.000000	66.457753	-30.192834	-7.950379	-97.259222	37.492346	17.922846	0.000000	-10.308682	2.236924	0.694918
1.380000	8.276759	0.895771	-179.912537	0.294458	0.595695	-1.210291	65.235113	-27.043469	-10.330351	-97.598225	36.867473	9.290301	0.000000	66.411407	-30.199074	-8.006352	-97.175009	37.447246	17.951771	0.000000	-10.300322	2.260629	0.648622
1.385000	8.294057	0.895643	-179.908287	0.294409	0.596070	-1.210298	65.202889	-27.053527	-10.381621	-97.536270	36.858101	9.286917	0.000000	66.376269	-30.201332	-8.044540	-97.106822	37.429095	17.954952	0.000000	-10.258177	2.267309	0.673475
1.390000	8.303255	0.901733	-179.916618	0.294341	0.596547	-1.210318	65.141758	-27.045157	-10.437327	-97.442599	36.807058	9.278965	0.000000	66.318935	-30.222478	-8.089101	-97.022285	37.354227	17.988464	0.000000	-10.217921	2.347281	0.576456
1.395000	8.320462	0.899821	-179.900270	0.294295	0.597040	-1.210299	65.079334	-27.066064	-10.498077	-97.336401	36.764300	9.277352	0.000000	66.260826	-30.207748	-8.137939	-96.918552	37.335805	18.023230	0.000000	-10.191661	2.363831	0.534240
1.400000	8.420284	0.919564	-179.766792	0.294913	0.597824	-1.210883	65.060233	-27.050458	-10.658826	-97.156073	36.683411	9.169495	0.000000	66.362654	-30.105185	-8.074970	-96.651392	37.122370	18.040820	0.000000	-10.149513	2.266247	0.535430
1.405000	8.353623	0.901804	-179.885039	0.294175	0.598158	-1.210451	64.924287	-27.062519	-10.626452	-97.086999	36.702414	9.363174	0.000000	66.121192	-30.218521	-8.249090	-96.658178	37.274615	18.125559	0.000000	-10.089741	2.344305	0.614321
1.410000	8.362939	0.900810	-179.861000	0.294144	0.598874	-1.210519	64.832755	-27.065448	-10.695652	-96.952365	36.667157	9.381780	0.000000	66.038169	-30.197569	-8.300333	-96.509521	37.202999	18.146970	0.000000	-10.077396	2.353180	0.513356
1.415000	8.361569	0.923959	-179.871264	0.294095	0.599589	-1.210479	64.725668	-27.046576	-10.779911	-96.810752	36.624255	9.396456	0.000000	65.949451	-30.216546	-8.354178	-96.381828	37.129348	18.132116	0.000000	-9.987819	2.293021	0.848627
1.420000	8.397507	0.909555	-179.853330	0.294017	0.600410	-1.210503	64.645245	-27.070151	-10.859701	-96.645191	36.567696	9.396249	0.000000	65.857791	-30.197546	-8.448681	-96.208767	37.057993	18.163290	0.000000	-9.908107	2.327215	0.718944
1.425000	8.429917	0.907819	-179.847361	0.293912	0.601277	-1.210476	64.506614	-27.048345	-10.804290	-96.404745	36.704312	9.992696	0.000000	65.751618	-30.193427	-8.549056	-96.022946	37.023743	18.230439	0.000000	-9.841781	2.308819	0.776526
1.430000	8.453962	0.882647	-179.799170	0.293858	0.602225	-1.210512	64.422499	-27.096350	-11.009310	-96.249584	36.438426	9.455304	0.000000	65.634979	-30.140451	-8.642365	-95.805112	36.938128	18.293106	0.000000	-9.781764	2.322899	0.635470
1.435000	8.503844	0.919802	-179.837837	0.293732	0.603270	-1.210534	64.262189	-26.997381	-10.953218	-95.921356	36.676811	10.181089	0.000000	65.539826	-30.192564	-8.725018	-95.595968	36.849015	18.319630	0.000000	-9.694349	2.329154	0.768002
1.440000	8.630541	0.938284	-179.700273	0.294212	0.604663	-1.210911	64.221252	-27.008163	-11.192622	-95.692142	36.381667	9.843460	0.000000	65.585717	-30.049778	-8.707068	-95.243468	36.552351	18.255438	0.000000	-9.609304	2.288029	0.669691
1.445000	8.698450	0.935887	-179.704455	0.294056	0.605892	-1.210870	64.087861	-26.984122	-11.255512	-95.372458	36.434407	10.031734	0.000000	65.470932	-30.040308	-8.831969	-94.989782	36.419038	18.268732	0.000000	-9.485423	2.352054	0.544677
